<?xml version="1.0" standalone="no"?>
<!DOCTYPE svg PUBLIC "-//W3C//DTD SVG 20010904//EN"
 "http://www.w3.org/TR/2001/REC-SVG-20010904/DTD/svg10.dtd">
<svg version="1.0" xmlns="http://www.w3.org/2000/svg"
 width="1050.000000pt" height="1050.000000pt" viewBox="0 0 1050.000000 1050.000000"
 preserveAspectRatio="xMidYMid meet">

<g transform="translate(0.000000,1050.000000) scale(0.100000,-0.100000)"
fill="#000000" stroke="none">
<path d="M5157 10132 c-43 -169 -125 -489 -182 -712 -58 -223 -124 -479 -146
-570 -22 -91 -44 -172 -48 -179 -5 -8 -66 -23 -147 -37 -520 -91 -1022 -312
-1459 -642 -556 -419 -993 -1023 -1201 -1660 -53 -162 -127 -444 -140 -534 -3
-26 -11 -53 -18 -61 -6 -8 -42 -22 -81 -32 -38 -10 -167 -47 -285 -82 -118
-35 -269 -77 -335 -94 -66 -17 -181 -48 -255 -69 -74 -22 -250 -71 -390 -109
-360 -99 -419 -117 -395 -124 93 -27 464 -129 880 -242 275 -75 583 -160 684
-189 l184 -53 27 -134 c69 -339 155 -595 301 -889 302 -608 801 -1134 1404
-1481 313 -180 766 -342 1105 -395 58 -10 108 -20 113 -24 9 -8 54 -168 157
-555 39 -148 109 -407 155 -575 79 -288 135 -499 150 -564 3 -15 8 -27 10 -25
3 4 80 286 215 794 125 470 243 900 251 916 5 11 36 20 96 29 127 18 383 83
541 136 1131 382 2014 1368 2266 2529 14 66 32 147 39 179 l12 59 115 33 c147
43 733 203 1095 300 248 66 492 135 535 151 9 3 -3 10 -30 19 -59 18 -1461
414 -1700 480 -11 3 -22 39 -39 119 -78 385 -160 624 -326 950 -115 226 -227
398 -394 605 -46 58 -85 106 -86 108 -2 3 -572 -115 -594 -123 -9 -4 23 -43
97 -118 138 -139 220 -241 343 -427 196 -296 313 -563 399 -914 74 -305 95
-514 80 -798 -12 -232 -20 -297 -61 -483 -58 -262 -110 -413 -218 -640 -156
-323 -320 -557 -574 -813 -491 -497 -1130 -800 -1817 -862 -303 -27 -662 2
-940 76 -430 115 -796 298 -1130 567 -117 94 -324 300 -425 422 -224 271 -421
625 -521 935 -177 549 -193 1078 -49 1650 108 430 337 855 649 1205 450 504
1072 841 1733 940 643 96 1244 -7 1806 -307 62 -33 145 -83 186 -110 l73 -50
187 57 c380 116 421 129 421 136 0 14 -214 177 -368 279 -296 196 -715 380
-1037 454 -92 21 -324 66 -344 66 -22 1 -39 50 -111 330 -44 173 -112 434
-150 580 -38 146 -105 403 -147 572 -43 169 -80 307 -83 308 -3 0 -40 -139
-83 -308z"/>
<path d="M3280 9391 c-58 -26 -161 -78 -229 -115 -142 -78 -458 -271 -482
-295 -15 -15 -11 -35 52 -271 l68 -255 -32 -25 c-157 -122 -419 -379 -581
-568 -61 -72 -93 -101 -104 -98 -38 11 -490 126 -495 126 -22 0 -270 -414
-393 -659 l-74 -146 196 -190 196 -190 -27 -69 c-45 -119 -133 -419 -158 -543
-36 -169 -60 -323 -53 -331 7 -6 8 -6 272 64 l171 46 22 117 c58 307 201 705
352 975 140 251 272 442 456 662 351 417 865 796 1374 1013 205 86 521 184
739 226 47 10 86 18 87 19 6 5 103 429 99 433 -6 6 -241 -34 -391 -68 -167
-37 -307 -79 -472 -140 -72 -27 -133 -49 -136 -49 -2 0 -67 71 -144 158 -78
86 -156 171 -175 189 l-33 32 -105 -48z"/>
<path d="M7000 9323 c-52 -58 -129 -141 -170 -184 l-75 -79 -190 65 c-180 61
-372 114 -550 150 -108 22 -265 43 -265 36 0 -3 24 -100 53 -216 l53 -210 133
-27 c250 -51 591 -165 816 -273 323 -154 614 -346 907 -598 l56 -48 169 51
c92 29 192 60 221 69 l54 17 -109 104 c-59 58 -152 143 -205 188 -54 46 -98
86 -98 90 0 3 27 107 59 231 33 124 62 240 66 257 6 31 5 32 -115 105 -325
199 -658 380 -699 379 -9 -1 -59 -48 -111 -107z"/>
<path d="M8960 7873 c-25 -7 -139 -38 -255 -68 -201 -52 -211 -54 -227 -37
-17 17 -23 17 -131 -10 -61 -15 -160 -37 -219 -49 -60 -12 -108 -25 -108 -29
0 -5 28 -41 61 -82 223 -266 411 -564 549 -872 102 -226 216 -596 246 -792 3
-24 12 -48 18 -53 14 -12 417 -123 423 -117 8 8 -50 326 -83 458 -19 76 -59
215 -90 310 l-56 173 191 187 191 188 -76 152 c-107 214 -314 568 -369 632
-19 23 -22 23 -65 9z"/>
<path d="M4947 7649 c-9 -13 -33 -82 -55 -154 -22 -71 -49 -146 -60 -165 -21
-35 -42 -181 -42 -291 0 -46 2 -49 25 -49 73 0 103 -113 46 -171 -17 -17 -40
-29 -55 -29 -24 0 -26 -3 -26 -46 0 -50 -16 -118 -61 -264 -17 -57 -25 -98
-20 -103 5 -5 66 -15 136 -23 154 -16 190 -36 125 -69 -25 -13 -30 -21 -30
-54 0 -31 5 -40 26 -50 21 -9 24 -14 14 -26 -6 -7 -23 -15 -38 -17 -19 -2 -28
-11 -34 -33 -9 -36 0 -75 17 -75 25 0 26 -20 2 -29 -27 -10 -122 -165 -112
-181 7 -12 -434 -918 -468 -964 -13 -17 -31 -45 -40 -62 -16 -30 -15 -31 9
-44 13 -8 23 -16 22 -20 -2 -3 -59 -117 -128 -252 l-124 -245 -146 -71 c-183
-88 -329 -178 -484 -295 -118 -90 -306 -266 -306 -286 0 -6 16 -28 35 -50 l35
-39 92 90 c50 49 100 94 111 100 18 9 18 8 -2 -29 -12 -21 -49 -74 -81 -118
-33 -44 -60 -86 -60 -93 0 -17 109 -132 212 -223 l77 -68 42 18 c32 14 49 17
67 10 18 -7 29 -6 42 6 19 17 46 20 55 5 3 -5 17 -10 31 -10 21 0 24 -4 24
-38 0 -46 20 -78 44 -69 13 5 16 21 16 75 0 64 2 70 33 98 17 17 56 47 85 68
35 26 52 45 52 59 0 12 10 28 21 36 18 11 19 15 8 23 -11 8 -10 9 4 4 10 -3
51 4 90 16 61 20 94 23 212 22 122 0 148 -3 200 -23 77 -30 98 -45 224 -159
128 -115 184 -145 266 -145 70 0 109 17 155 69 55 63 63 93 70 274 5 140 9
171 27 205 40 76 98 124 257 210 116 62 170 116 191 190 20 67 14 132 -16 164
-29 31 -32 26 -9 -16 32 -61 24 -142 -22 -209 -24 -35 -100 -88 -216 -150
-100 -53 -165 -113 -199 -182 -26 -53 -28 -67 -33 -222 -5 -151 -8 -169 -30
-208 -27 -49 -93 -97 -146 -106 -47 -9 -129 15 -183 54 -24 18 -83 69 -133
116 -143 134 -245 171 -445 162 -82 -4 -125 -11 -175 -30 -77 -29 -81 -18 -6
17 27 13 56 33 65 44 14 21 102 71 124 71 6 0 1 -9 -12 -20 -13 -10 -18 -19
-12 -20 22 0 143 52 143 61 0 6 -8 5 -19 -1 -48 -25 -87 1 -62 43 22 34 -1 41
-54 18 -60 -26 -69 -21 -18 10 31 19 49 23 97 21 64 -3 135 16 175 47 23 17
23 19 6 44 -9 14 -25 29 -35 32 -11 4 -20 20 -24 45 -7 46 -21 58 -44 37 -31
-28 -72 -26 -65 3 9 35 -14 50 -78 50 -34 0 -59 -4 -59 -10 0 -6 -8 -23 -17
-37 -10 -15 -18 -31 -19 -37 0 -6 -2 -17 -2 -24 -1 -7 -22 -21 -46 -31 -34
-15 -44 -25 -49 -49 -6 -29 -42 -60 -55 -48 -3 3 -1 21 5 40 l11 34 -59 27
c-90 40 -81 64 46 128 96 47 117 53 108 31 -5 -14 -3 -16 11 -11 10 4 29 10
44 14 23 5 24 7 8 19 -19 13 -15 18 28 28 16 4 41 20 57 37 21 23 36 29 67 29
22 0 45 -6 51 -14 16 -19 -26 -51 -79 -60 -49 -8 -53 -26 -5 -26 19 0 49 -9
67 -20 38 -23 62 -26 55 -6 -4 10 0 12 14 9 21 -6 41 28 21 35 -7 2 -12 10
-12 17 0 11 6 12 31 3 22 -7 37 -7 55 1 32 14 30 27 -7 47 -22 11 -30 21 -26
34 3 13 -5 23 -35 36 -35 16 -37 19 -21 28 15 9 9 12 -32 16 l-50 6 60 7 c33
5 89 17 125 27 36 11 74 20 84 20 16 0 15 -3 -5 -20 l-24 -19 73 -1 c52 0 72
-4 72 -13 0 -7 -22 -36 -49 -64 -26 -27 -64 -83 -85 -123 -65 -130 -45 -234
61 -318 136 -107 265 -95 343 33 96 156 110 174 186 225 63 41 83 50 120 50
62 0 108 24 100 54 -4 16 1 24 16 31 29 13 58 54 67 96 9 38 -4 99 -21 99 -7
0 -6 -5 2 -15 18 -22 7 -97 -19 -133 -32 -46 -83 -73 -148 -79 -82 -7 -90 -10
-67 -29 14 -11 16 -17 6 -21 -36 -15 -136 -89 -161 -120 -17 -20 -44 -62 -61
-94 -60 -113 -105 -149 -187 -149 -62 1 -121 28 -182 85 -61 57 -87 116 -77
177 8 50 66 163 110 214 26 30 36 35 55 29 21 -6 22 -9 8 -17 -21 -11 -22 -29
-2 -22 8 4 15 1 15 -5 0 -6 -11 -13 -25 -17 -21 -5 -25 -12 -25 -46 0 -53 23
-94 61 -107 57 -20 72 -14 107 38 35 52 56 66 112 77 19 3 51 15 70 24 20 10
54 21 75 25 81 14 115 26 125 45 9 17 7 22 -12 30 -23 9 -23 9 4 9 31 1 34 4
43 54 6 31 5 37 -10 37 -14 0 -15 3 -5 15 8 10 31 15 69 15 83 0 233 -19 247
-31 7 -6 18 -8 23 -5 19 12 267 -46 441 -104 180 -60 355 -135 293 -125 -25 3
-33 1 -33 -10 0 -18 -29 -19 -65 -3 -27 12 -32 24 -12 31 6 2 -26 16 -73 32
-71 22 -97 26 -156 22 -84 -6 -114 -21 -114 -58 0 -28 -32 -63 -67 -74 -29 -8
-29 -32 1 -69 21 -25 28 -28 59 -22 29 5 40 2 66 -20 18 -15 30 -33 27 -40 -6
-17 17 -18 45 -4 14 8 18 17 13 34 -4 17 0 25 18 34 15 7 18 11 7 11 -8 1 -26
12 -39 26 -20 22 -22 29 -12 43 7 9 17 27 22 40 7 16 17 22 33 20 22 -3 27
-25 13 -58 -3 -9 0 -24 7 -34 11 -15 25 -19 71 -17 33 1 56 -3 56 -9 0 -5 -11
-10 -24 -10 -27 0 -42 -15 -26 -25 17 -10 11 -25 -10 -25 -23 0 -23 0 -11 -33
10 -25 10 -25 -74 -32 -57 -4 -90 -3 -105 5 -15 8 -19 15 -11 19 8 5 3 11 -13
19 -30 13 -37 7 -26 -22 7 -19 3 -26 -23 -41 -17 -10 -47 -33 -67 -51 -54 -49
-83 -57 -205 -58 -94 -1 -116 -4 -152 -23 -88 -47 -122 -138 -103 -269 16
-110 12 -164 -14 -220 -30 -66 -74 -114 -143 -160 -134 -89 -279 -107 -393
-49 -72 36 -109 69 -202 180 -132 158 -195 196 -339 203 -141 7 -242 -32 -339
-131 -46 -47 -121 -176 -120 -208 1 -8 18 20 40 61 55 108 116 172 207 217 65
32 86 37 161 41 104 4 190 -19 255 -69 23 -17 80 -77 127 -132 133 -156 204
-204 319 -214 158 -15 346 85 429 226 27 45 27 49 27 221 0 193 5 213 65 263
39 33 89 47 170 47 94 -1 163 -35 172 -85 3 -18 -4 -20 -82 -25 -69 -4 -84 -8
-81 -20 6 -26 5 -54 -2 -75 -4 -13 1 -29 12 -45 17 -21 29 -25 91 -28 81 -5
110 11 110 59 0 19 8 34 24 44 13 9 26 25 29 35 4 15 14 20 41 20 20 0 47 7
59 15 21 13 26 12 62 -12 82 -55 151 -90 169 -83 15 5 3 15 -53 49 -69 41 -91
64 -77 79 15 15 121 -57 196 -132 78 -79 115 -95 85 -35 -20 39 -13 49 36 49
24 0 38 -4 34 -10 -10 -16 26 -68 54 -80 14 -5 37 -9 51 -8 14 1 42 1 62 0 32
-2 37 -6 43 -32 4 -16 1 -46 -5 -65 l-12 -35 -62 0 c-36 0 -92 9 -131 21 -74
24 -97 19 -103 -20 -4 -28 -27 -27 -81 4 -24 14 -61 28 -84 32 -50 8 -77 34
-77 75 l0 31 -104 -6 c-65 -4 -116 -12 -135 -21 -37 -19 -131 -22 -131 -3 0 6
-6 3 -12 -8 -6 -11 -26 -35 -44 -52 -26 -25 -34 -41 -34 -67 0 -28 -8 -40 -46
-71 -34 -28 -55 -57 -80 -112 -31 -70 -33 -77 -23 -125 8 -37 8 -61 -1 -94
-16 -58 -8 -87 44 -142 23 -26 46 -55 49 -64 9 -24 40 -23 167 6 262 60 596
206 838 365 67 45 122 83 122 84 0 2 -11 18 -25 37 -26 35 -33 70 -14 70 6 0
26 -16 44 -36 l34 -36 33 23 c32 23 155 126 211 178 51 48 247 262 247 271 0
14 -157 166 -245 237 -137 111 -342 240 -523 331 l-174 87 -125 250 c-123 246
-125 250 -104 263 11 8 21 19 21 24 0 6 -21 41 -46 79 -25 38 -109 198 -185
357 -77 158 -175 357 -217 442 -42 85 -76 161 -74 168 5 20 -77 161 -104 179
l-25 16 21 14 c17 12 20 24 18 61 -2 38 -7 47 -23 50 -50 7 -65 13 -65 27 0 8
11 17 25 21 32 8 34 54 4 92 l-21 27 -166 -3 c-128 -3 -171 -1 -185 10 -10 7
-31 58 -48 118 -17 58 -42 132 -56 165 -13 33 -27 70 -30 83 -6 27 12 52 38
52 18 0 19 12 19 228 0 170 -4 244 -16 297 -24 106 -24 110 13 113 22 2 37 -3
51 -18 39 -42 46 -94 47 -325 l0 -220 53 3 52 3 0 -35 c0 -32 2 -34 38 -38 20
-3 62 -4 92 -4 l55 1 1 77 c1 42 7 91 13 109 6 18 11 33 11 35 0 2 -51 5 -112
6 l-113 3 -3 167 -2 166 106 -5 107 -6 -7 35 c-6 35 -6 36 26 33 39 -2 62 -38
79 -127 12 -62 14 -63 52 -49 24 9 25 12 16 53 -6 23 -23 67 -39 98 -16 30
-40 91 -54 135 -40 130 -52 153 -83 159 -40 9 -280 33 -400 41 -99 7 -102 6
-116 -16z m318 -100 c50 -6 94 -14 99 -19 6 -6 10 -31 10 -57 l1 -48 -130 -6
c-71 -3 -137 -9 -146 -13 -13 -6 -17 2 -23 40 -7 57 -8 109 -1 116 6 6 42 3
190 -13z m-240 -919 c3 -5 1 -10 -4 -10 -6 0 -11 5 -11 10 0 6 2 10 4 10 3 0
8 -4 11 -10z m1 -89 c-3 -31 -14 -78 -25 -106 l-20 -50 -1 101 c0 102 8 128
37 117 12 -5 14 -18 9 -62z m162 -374 c14 -14 14 -17 0 -22 -8 -3 -46 -5 -84
-3 -64 3 -69 5 -72 27 -4 24 -3 24 68 19 47 -4 77 -11 88 -21z m261 14 c12 -8
12 -12 2 -25 -10 -12 -32 -16 -82 -16 -74 0 -91 10 -57 34 25 17 114 22 137 7z
m-123 -416 c6 -15 -11 -626 -23 -792 l-6 -93 -57 0 -57 0 -6 158 c-4 86 -10
289 -14 450 l-6 292 82 0 c63 0 83 -3 87 -15z m-376 -2 c0 -7 -238 -462 -328
-628 -79 -146 -114 -173 -53 -42 58 127 314 652 324 665 10 12 57 17 57 5z
m648 -5 c6 -7 36 -69 67 -138 32 -69 109 -232 172 -364 63 -131 112 -241 109
-244 -3 -3 -8 -3 -10 -1 -28 33 -396 727 -396 747 0 16 45 15 58 0z m-534
-250 c15 -523 29 -923 32 -927 2 -2 18 -6 36 -10 32 -7 33 -8 33 -61 l0 -55
-35 -2 c-268 -18 -476 -52 -704 -114 -81 -22 -150 -38 -153 -35 -2 2 37 86 87
186 84 166 94 181 114 176 21 -5 27 3 61 74 20 45 97 196 171 338 73 141 180
346 236 454 57 109 106 198 109 198 3 0 9 -100 13 -222z m471 37 c48 -88 170
-323 272 -522 157 -310 187 -362 205 -360 17 2 36 -28 114 -183 52 -102 94
-186 94 -186 0 -1 -48 14 -107 32 -197 62 -444 106 -675 120 -65 4 -118 9
-119 13 -11 87 -5 109 34 113 l32 3 6 140 c4 77 12 311 18 520 13 410 18 492
31 479 5 -5 48 -81 95 -169z m-1085 -1335 c0 -5 11 -10 25 -10 41 0 29 -16
-20 -27 -44 -10 -45 -10 -29 8 15 17 15 19 2 19 -9 0 -35 -9 -59 -21 l-44 -20
38 5 38 5 -25 -20 c-14 -11 -28 -28 -31 -39 -8 -24 -44 -45 -56 -33 -5 5 -1
24 10 46 10 20 17 37 15 37 -13 0 -82 -41 -93 -54 -8 -9 -20 -16 -28 -16 -8 0
-27 -7 -44 -15 -19 -10 -35 -13 -45 -7 -13 7 -10 10 15 15 17 4 30 12 29 18
-4 16 80 58 117 59 17 1 55 14 85 30 56 29 100 38 100 20z m907 -46 c-3 -3
-12 -4 -19 -1 -8 3 -5 6 6 6 11 1 17 -2 13 -5z m-1280 -100 c-3 -3 -12 -4 -19
-1 -8 3 -5 6 6 6 11 1 17 -2 13 -5z m2613 -454 c0 -5 -9 -10 -21 -10 -11 0
-17 5 -14 10 3 6 13 10 21 10 8 0 14 -4 14 -10z m267 -6 c3 -9 0 -19 -6 -24
-15 -9 39 -76 70 -85 11 -4 18 -12 16 -18 -2 -6 7 -27 20 -46 13 -18 23 -38
23 -42 0 -16 -44 -9 -77 11 -25 15 -33 27 -33 48 0 20 -14 41 -50 77 -67 66
-66 92 3 94 17 1 30 -5 34 -15z m-342 -14 c12 -13 25 -17 45 -14 16 4 41 -1
61 -11 38 -19 89 -64 89 -78 0 -12 -91 -1 -125 15 -20 9 -28 8 -43 -5 -25 -22
-44 -21 -76 4 -30 24 -34 63 -9 91 21 23 36 23 58 -2z"/>
<path d="M5006 6575 c4 -8 8 -15 10 -15 2 0 4 7 4 15 0 8 -4 15 -10 15 -5 0
-7 -7 -4 -15z"/>
<path d="M5349 7235 c-66 -36 -78 -155 -20 -207 45 -40 111 -40 152 1 16 16
29 35 30 43 0 7 2 21 4 31 5 25 -2 22 -39 -18 -39 -41 -65 -44 -102 -12 -71
61 7 165 84 111 12 -8 22 -22 22 -30 0 -8 9 -14 20 -14 24 0 24 3 5 40 -33 63
-98 87 -156 55z"/>
<path d="M5618 7142 c-29 -3 -33 -9 -20 -29 5 -8 14 -6 31 8 28 23 26 26 -11
21z"/>
<path d="M5578 6906 l3 -184 32 0 32 0 4 169 3 169 -36 15 c-19 8 -37 15 -38
15 -2 0 -2 -83 0 -184z"/>
<path d="M5660 7072 c0 -5 6 -9 13 -9 6 -1 161 -49 342 -108 182 -59 456 -147
610 -197 532 -171 524 -168 549 -202 41 -55 153 -247 218 -376 l64 -125 168
-3 168 -2 -6 27 c-23 93 -142 358 -234 520 -45 78 -49 83 -92 92 -25 6 -169
37 -320 70 -151 33 -410 90 -575 126 -165 36 -394 86 -510 110 -115 24 -250
53 -298 64 -101 24 -97 24 -97 13z"/>
<path d="M4756 6948 c-23 -32 -20 -94 4 -118 25 -25 41 -25 71 -1 18 15 23 28
23 60 -2 72 -64 108 -98 59z"/>
<path d="M5070 6687 c0 -21 69 -235 95 -294 l24 -53 234 0 c359 0 362 1 326
115 -28 92 -86 227 -101 237 -7 4 -140 8 -295 8 -229 0 -283 -3 -283 -13z
m438 -142 c18 -58 30 -110 27 -115 -10 -15 -300 -13 -313 3 -9 12 -62 186 -62
206 0 7 53 11 158 11 l157 0 33 -105z m60 88 c-2 -10 -12 -18 -23 -18 -11 0
-21 8 -23 18 -3 13 3 17 23 17 20 0 26 -4 23 -17z m75 3 c7 -17 -1 -26 -24
-26 -21 0 -33 15 -24 30 9 15 42 12 48 -4z m-55 -69 c2 -11 -3 -17 -17 -17
-23 0 -35 15 -26 31 10 15 39 6 43 -14z m70 0 c2 -11 -3 -17 -17 -17 -23 0
-35 15 -26 31 10 15 39 6 43 -14z m-49 -50 c13 -16 5 -27 -20 -27 -21 0 -33
15 -24 30 9 14 31 12 44 -3z m69 -10 c3 -14 -1 -18 -20 -15 -12 2 -24 11 -26
21 -3 14 1 18 20 15 12 -2 24 -11 26 -21z m22 -63 c0 -19 -39 -18 -47 2 -3 9
0 20 8 24 15 10 39 -6 39 -26z m-70 11 c15 -18 13 -20 -17 -29 -24 -8 -38 7
-29 29 7 19 30 19 46 0z"/>
<path d="M6753 5527 c-39 -28 -313 -292 -313 -301 0 -3 259 -6 575 -6 l575 0
0 -47 c-1 -81 -27 -307 -50 -420 -44 -220 -161 -505 -289 -708 -28 -43 -51
-82 -51 -86 0 -3 26 -27 58 -52 31 -25 88 -75 126 -111 38 -37 70 -65 71 -64
35 47 130 207 170 288 220 439 308 840 291 1310 -3 96 -9 185 -12 198 l-6 22
-557 0 -557 0 -31 -23z"/>
<path d="M1177 4676 c26 -244 93 -515 197 -801 l36 -100 -98 -95 c-53 -52
-142 -137 -195 -187 l-98 -93 62 -122 c167 -331 382 -688 414 -688 7 0 41 9
76 19 114 35 400 111 418 111 10 0 61 -53 123 -127 115 -138 304 -328 463
-464 153 -132 143 -106 100 -250 -33 -112 -95 -359 -95 -379 0 -14 482 -302
742 -443 l66 -36 139 146 c76 81 159 169 185 197 46 50 47 51 80 38 102 -40
312 -108 440 -143 187 -51 502 -110 506 -94 2 10 -77 333 -99 401 -9 29 -14
32 -82 43 -358 63 -817 234 -1139 425 -648 383 -1148 913 -1482 1571 -135 263
-249 584 -305 857 l-27 133 -125 36 c-68 20 -165 48 -215 61 l-92 25 5 -41z"/>
<path d="M9090 4658 c-113 -33 -206 -61 -207 -62 -1 -1 -16 -69 -33 -152 -104
-498 -373 -1061 -705 -1473 -425 -528 -957 -927 -1560 -1169 -82 -33 -186 -71
-231 -85 -100 -32 -346 -92 -435 -107 l-66 -12 -53 -196 c-67 -249 -67 -252
-44 -247 11 3 89 16 174 30 196 32 374 78 614 157 l188 62 72 -75 c39 -41 122
-128 183 -193 l111 -120 213 119 c245 136 458 260 543 318 l58 39 -6 42 c-4
22 -31 140 -62 260 -45 178 -52 222 -42 231 7 7 76 68 153 136 175 155 320
302 442 447 67 80 100 111 111 108 10 -3 85 -24 167 -46 83 -23 189 -54 238
-70 l87 -29 25 35 c14 19 36 49 49 67 12 17 58 93 101 167 43 74 81 140 85
145 18 23 210 395 210 407 0 7 -86 96 -191 198 l-191 185 36 100 c72 199 142
470 176 679 23 141 24 166 8 165 -7 0 -105 -27 -218 -61z"/>
<path d="M4420 4079 c0 -5 5 -7 10 -4 6 3 10 8 10 11 0 2 -4 4 -10 4 -5 0 -10
-5 -10 -11z"/>
<path d="M5730 3889 c0 -19 22 -54 49 -76 24 -20 25 -24 14 -53 l-12 -33 60 6
c33 3 63 8 67 11 3 4 -20 32 -51 64 -31 32 -57 63 -57 69 0 6 -7 14 -16 17
-25 9 -54 7 -54 -5z"/>
<path d="M5698 3823 c-13 -3 -18 -15 -18 -39 0 -38 -1 -38 34 -24 20 7 26 16
26 40 0 30 -6 33 -42 23z"/>
<path d="M4548 3709 c-27 -22 -48 -44 -48 -48 0 -5 19 -11 43 -14 23 -3 52 -9
65 -13 19 -5 22 -3 22 19 0 16 -8 31 -21 37 -16 9 -19 18 -15 36 4 13 5 24 4
24 -2 0 -24 -18 -50 -41z"/>
<path d="M6150 3475 c0 -11 5 -27 10 -35 8 -12 10 -12 10 5 0 11 -5 27 -10 35
-8 12 -10 12 -10 -5z"/>
<path d="M6265 3400 c3 -5 15 -10 26 -10 10 0 19 5 19 10 0 6 -12 10 -26 10
-14 0 -23 -4 -19 -10z"/>
<path d="M4294 3128 c-72 -48 -107 -123 -112 -238 -3 -52 0 -95 6 -106 9 -14
10 -2 5 49 -11 125 43 248 129 293 46 24 121 20 170 -9 47 -27 78 -63 155
-177 100 -150 186 -200 385 -226 243 -31 320 -56 406 -130 52 -44 55 -31 5 18
-75 73 -153 99 -359 124 -243 28 -332 79 -441 249 -88 136 -152 185 -246 185
-45 0 -63 -6 -103 -32z"/>
<path d="M3776 3001 c-5 -7 2 -11 19 -11 37 0 125 -40 125 -56 0 -16 43 -29
60 -19 8 5 -11 23 -49 47 -63 42 -142 61 -155 39z"/>
<path d="M4020 2905 c0 -23 4 -25 44 -25 61 0 65 15 9 34 -26 9 -48 16 -50 16
-2 0 -3 -11 -3 -25z"/>
<path d="M4356 2865 c-23 -21 -26 -32 -26 -89 0 -36 4 -67 9 -70 4 -3 8 20 7
52 -1 82 20 112 79 112 60 0 108 -43 148 -130 31 -69 75 -135 84 -126 3 3 0
12 -6 20 -7 8 -36 59 -65 113 -60 112 -94 143 -161 143 -31 0 -49 -7 -69 -25z"/>
</g>
</svg>
